<svg xmlns="http://www.w3.org/2000/svg" viewBox="0 0 45.95 46.25"><defs><style>.cls-1{fill:#fff;}</style></defs><title>Recurso 2</title><g id="Capa_2" data-name="Capa 2"><g id="Capa_1-2" data-name="Capa 1"><path class="cls-1" d="M0,46.25v0L.11,46c.39-1.16.77-2.32,1.16-3.48C2.18,39.78,3.1,37.07,4,34.35A.47.47,0,0,0,4,34a21.89,21.89,0,0,1-3-8.65A22.18,22.18,0,0,1,3.6,11.81a22.11,22.11,0,0,1,11.08-10A22.41,22.41,0,0,1,27.48.37a22.76,22.76,0,0,1,6.59,2.35,22.21,22.21,0,0,1,6.35,5,23,23,0,0,1,4.23,7.3,21.13,21.13,0,0,1,1.2,5.5c0,.34.06.68.1,1v1.88c0,.11,0,.22-.05.33a19.4,19.4,0,0,1-.46,3.48A22.9,22.9,0,0,1,39.8,38,22.54,22.54,0,0,1,31,43.76a21.21,21.21,0,0,1-6.44,1.3,22.4,22.4,0,0,1-6.37-.58,22.76,22.76,0,0,1-5.25-2,.94.94,0,0,0-.83-.1Q6.72,44.15,1.34,45.86C.9,46,.45,46.12,0,46.25ZM5.84,40.5c.19-.06.33-.09.46-.14l6.55-2.08a.43.43,0,0,1,.42,0q.51.33,1.05.63a18.14,18.14,0,0,0,7.46,2.29,18.5,18.5,0,0,0,4.64-.18,18.86,18.86,0,0,0,6.25-2.23,18,18,0,0,0,6.5-6.16A18.68,18.68,0,0,0,42,20a18.6,18.6,0,0,0-1.59-5.31,18.38,18.38,0,0,0-6.87-7.89,18.78,18.78,0,0,0-8-2.89,18.2,18.2,0,0,0-7.82.8,19.12,19.12,0,0,0-6.81,3.89,18.75,18.75,0,0,0-5.48,8.71A18.44,18.44,0,0,0,4.76,25a18.17,18.17,0,0,0,3.32,8.39.36.36,0,0,1,.05.37C7.75,34.84,7.39,35.94,7,37S6.24,39.31,5.84,40.5Z"/><path class="cls-1" d="M12.12,17.27a6.64,6.64,0,0,1,2-4.85,2.4,2.4,0,0,1,1.46-.86,9.51,9.51,0,0,1,1.19,0,1.33,1.33,0,0,0,.28,0,1,1,0,0,1,1.15.78l1.77,4.86a1,1,0,0,1-.22,1c-.34.47-.73.89-1.09,1.34-.2.24-.38.48-.57.72a.56.56,0,0,0,0,.62,13.78,13.78,0,0,0,3.75,4.78,21.56,21.56,0,0,0,4,2.52.84.84,0,0,0,1.09-.14c.43-.46.84-.93,1.27-1.39s.6-.65.91-1a.67.67,0,0,1,.87-.15c1,.51,2.06,1,3.08,1.52.62.32,1.21.69,1.81,1a.61.61,0,0,1,.34.61,5.85,5.85,0,0,1-.64,2.57,3.77,3.77,0,0,1-1.77,1.6,6.27,6.27,0,0,1-3.53.89,10.44,10.44,0,0,1-2.32-.55,26.67,26.67,0,0,1-4.73-2.11,17.71,17.71,0,0,1-4.53-3.83,38,38,0,0,1-4-5.39A9.8,9.8,0,0,1,12.18,18C12.14,17.73,12.13,17.44,12.12,17.27Z"/></g></g></svg>